<svg width="40" height="40" viewBox="0 0 40 40" fill="none" xmlns="http://www.w3.org/2000/svg">
<path d="M20 25C22.7614 25 25 22.7614 25 20C25 17.2386 22.7614 15 20 15C17.2386 15 15 17.2386 15 20C15 22.7614 17.2386 25 20 25Z" fill="#03A7D9"/>
<path d="M38.675 19.575C37.2048 15.7721 34.6524 12.4833 31.3335 10.1151C28.0145 7.74694 24.0743 6.40322 20 6.25C15.9256 6.40322 11.9854 7.74694 8.66646 10.1151C5.34748 12.4833 2.79516 15.7721 1.32496 19.575C1.22567 19.8496 1.22567 20.1504 1.32496 20.425C2.79516 24.2279 5.34748 27.5167 8.66646 29.8849C11.9854 32.2531 15.9256 33.5968 20 33.75C24.0743 33.5968 28.0145 32.2531 31.3335 29.8849C34.6524 27.5167 37.2048 24.2279 38.675 20.425C38.7743 20.1504 38.7743 19.8496 38.675 19.575ZM20 28.125C18.393 28.125 16.8221 27.6485 15.4859 26.7557C14.1498 25.8629 13.1084 24.594 12.4934 23.1093C11.8785 21.6247 11.7176 19.991 12.0311 18.4149C12.3446 16.8388 13.1184 15.3911 14.2547 14.2548C15.391 13.1185 16.8388 12.3446 18.4148 12.0311C19.9909 11.7176 21.6246 11.8785 23.1093 12.4935C24.5939 13.1084 25.8629 14.1498 26.7556 15.486C27.6484 16.8221 28.125 18.393 28.125 20C28.1217 22.1539 27.2646 24.2186 25.7415 25.7416C24.2185 27.2646 22.1538 28.1217 20 28.125Z" fill="#03A7D9"/>
</svg>
