<svg width="40" height="40" viewBox="0 0 40 40" fill="none" xmlns="http://www.w3.org/2000/svg">
<path d="M17.1782 12.0321C18.2485 9.36399 18.7836 8.02995 19.653 7.84506C19.8816 7.79644 20.1178 7.79644 20.3464 7.84506C21.2158 8.02995 21.7509 9.36399 22.8212 12.0321C23.4298 13.5494 23.7341 14.308 24.3035 14.824C24.4632 14.9687 24.6366 15.0977 24.8212 15.2089C25.4793 15.6056 26.3009 15.6792 27.9441 15.8263C30.7256 16.0754 32.1164 16.2 32.5411 16.993C32.6291 17.1572 32.6889 17.335 32.718 17.519C32.8588 18.4075 31.8364 19.3377 29.7916 21.1981L29.2237 21.7147C28.2677 22.5845 27.7897 23.0194 27.5132 23.5621C27.3474 23.8877 27.2361 24.2383 27.184 24.5999C27.0972 25.2028 27.2372 25.8337 27.5171 27.0955L27.6171 27.5463C28.1192 29.8091 28.3702 30.9405 28.0568 31.4966C27.7754 31.9961 27.2569 32.3159 26.6842 32.3433C26.0466 32.3737 25.1482 31.6416 23.3514 30.1775C22.1676 29.2129 21.5757 28.7306 20.9186 28.5421C20.3181 28.37 19.6813 28.37 19.0808 28.5421C18.4238 28.7306 17.8319 29.2129 16.648 30.1775C14.8512 31.6416 13.9528 32.3737 13.3152 32.3433C12.7425 32.3159 12.224 31.9961 11.9426 31.4966C11.6292 30.9405 11.8802 29.8091 12.3823 27.5463L12.4823 27.0955C12.7623 25.8337 12.9022 25.2028 12.8154 24.5999C12.7633 24.2383 12.6521 23.8877 12.4862 23.5621C12.2097 23.0194 11.7317 22.5845 10.7757 21.7147L10.2079 21.1981C8.163 19.3377 7.14056 18.4075 7.28137 17.519C7.31053 17.335 7.37034 17.1572 7.4583 16.993C7.88301 16.2 9.27379 16.0754 12.0553 15.8263C13.6985 15.6792 14.5201 15.6056 15.1782 15.2089C15.3628 15.0977 15.5362 14.9687 15.6959 14.824C16.2653 14.308 16.5696 13.5494 17.1782 12.0321Z" fill="#03A7D9" stroke="#03A7D9" stroke-width="3.33368"/>
</svg>
